<?xml version="1.0" encoding="UTF-8" standalone="no"?>
<!-- Created with Inkscape (http://www.inkscape.org/) -->

<svg
   xmlns:dc="http://purl.org/dc/elements/1.1/"
   xmlns:cc="http://creativecommons.org/ns#"
   xmlns:rdf="http://www.w3.org/1999/02/22-rdf-syntax-ns#"
   xmlns:svg="http://www.w3.org/2000/svg"
   xmlns="http://www.w3.org/2000/svg"
   xmlns:sodipodi="http://sodipodi.sourceforge.net/DTD/sodipodi-0.dtd"
   xmlns:inkscape="http://www.inkscape.org/namespaces/inkscape"
   width="32"
   height="32"
   viewBox="0 0 31.999998 31.999998"
   id="svg2"
   version="1.1"
   inkscape:version="0.91 r13725"
   sodipodi:docname="favicon.svg">
  <defs
     id="defs4">
    <filter
       style="color-interpolation-filters:sRGB"
       inkscape:label="Drop Shadow"
       id="filter11832">
      <feFlood
         flood-opacity="0.188235"
         flood-color="rgb(0,0,0)"
         result="flood"
         id="feFlood11834" />
      <feComposite
         in="flood"
         in2="SourceGraphic"
         operator="in"
         result="composite1"
         id="feComposite11836" />
      <feGaussianBlur
         in="composite1"
         stdDeviation="0.8"
         result="blur"
         id="feGaussianBlur11838" />
      <feOffset
         dx="1"
         dy="1"
         result="offset"
         id="feOffset11840" />
      <feComposite
         in="SourceGraphic"
         in2="offset"
         operator="over"
         result="composite2"
         id="feComposite11842" />
    </filter>
    <filter
       style="color-interpolation-filters:sRGB"
       inkscape:label="Drop Shadow"
       id="filter11832-1">
      <feFlood
         flood-opacity="0.188235"
         flood-color="rgb(0,0,0)"
         result="flood"
         id="feFlood11834-5" />
      <feComposite
         in="flood"
         in2="SourceGraphic"
         operator="in"
         result="composite1"
         id="feComposite11836-5" />
      <feGaussianBlur
         in="composite1"
         stdDeviation="0.8"
         result="blur"
         id="feGaussianBlur11838-4" />
      <feOffset
         dx="1"
         dy="1"
         result="offset"
         id="feOffset11840-0" />
      <feComposite
         in="SourceGraphic"
         in2="offset"
         operator="over"
         result="composite2"
         id="feComposite11842-9" />
    </filter>
  </defs>
  <sodipodi:namedview
     id="base"
     pagecolor="#ffff00"
     bordercolor="#666666"
     borderopacity="1.0"
     inkscape:pageopacity="0"
     inkscape:pageshadow="2"
     inkscape:zoom="3.959798"
     inkscape:cx="50.146484"
     inkscape:cy="75.194319"
     inkscape:document-units="px"
     inkscape:current-layer="layer1"
     showgrid="false"
     inkscape:snap-bbox="true"
     inkscape:snap-bbox-midpoints="true"
     inkscape:snap-bbox-edge-midpoints="true"
     inkscape:bbox-nodes="true"
     inkscape:bbox-paths="true"
     showguides="false"
     inkscape:guide-bbox="true"
     units="px"
     inkscape:snap-global="true"
     inkscape:snap-to-guides="true"
     inkscape:snap-grids="false"
     inkscape:object-paths="true"
     inkscape:snap-nodes="true"
     inkscape:window-width="1846"
     inkscape:window-height="1178"
     inkscape:window-x="66"
     inkscape:window-y="-8"
     inkscape:window-maximized="1"
     inkscape:snap-page="true"
     showborder="true">
    <sodipodi:guide
       position="-4474.2857,1519.6929"
       orientation="1,0"
       id="guide4786" />
    <sodipodi:guide
       position="-4474.2857,1114.2857"
       orientation="0,1"
       id="guide4788" />
    <sodipodi:guide
       position="-5674.2857,-542.85717"
       orientation="1,0"
       id="guide4792" />
    <sodipodi:guide
       position="-5674.2857,-542.85717"
       orientation="0,1"
       id="guide4794" />
    <sodipodi:guide
       position="379.99999,1802.8571"
       orientation="1,0"
       id="guide5398" />
    <sodipodi:guide
       position="99.999995,1828.5714"
       orientation="1,0"
       id="guide5400"
       inkscape:label=""
       inkscape:color="rgb(0,0,255)" />
    <sodipodi:guide
       position="-22.728431,164.99999"
       orientation="0,1"
       id="guide5435"
       inkscape:label=""
       inkscape:color="rgb(0,0,255)" />
    <sodipodi:guide
       position="-46.972091,34.999998"
       orientation="0,1"
       id="guide5437"
       inkscape:label=""
       inkscape:color="rgb(0,0,255)" />
    <sodipodi:guide
       position="145.46196,114.65231"
       orientation="0,1"
       id="guide5439" />
    <sodipodi:guide
       position="25.999999,106.42857"
       orientation="1,0"
       id="guide5464"
       inkscape:label=""
       inkscape:color="rgb(0,0,255)" />
    <sodipodi:guide
       position="173.99999,253.21427"
       orientation="1,0"
       id="guide5466"
       inkscape:label=""
       inkscape:color="rgb(0,0,255)" />
    <sodipodi:guide
       position="71.127716,114.27839"
       orientation="1,0"
       id="guide5525" />
    <sodipodi:guide
       position="128.6089,114.74111"
       orientation="1,0"
       id="guide5527" />
  </sodipodi:namedview>
  <metadata
     id="metadata7">
    <rdf:RDF>
      <cc:Work
         rdf:about="">
        <dc:format>image/svg+xml</dc:format>
        <dc:type
           rdf:resource="http://purl.org/dc/dcmitype/StillImage" />
        <dc:title></dc:title>
      </cc:Work>
    </rdf:RDF>
  </metadata>
  <g
     inkscape:label="Layer 1"
     inkscape:groupmode="layer"
     id="layer1"
     transform="translate(0,-1020.3623)">
    <rect
       style="fill:#44e8fc;fill-opacity:1;stroke:none;stroke-width:5.80000019;stroke-linejoin:round;stroke-miterlimit:4;stroke-dasharray:none;stroke-opacity:1"
       id="rect7837"
       width="31.999996"
       height="31.999996"
       x="4.5474735e-013"
       y="1020.3623"
       ry="6.9392018" />
    <path
       style="fill:#ffffff;fill-opacity:1;stroke:none;stroke-width:20.63436317;stroke-linecap:butt;stroke-linejoin:miter;stroke-miterlimit:4;stroke-dasharray:none;stroke-opacity:1"
       d="m 15.957449,1025.308 a 2.3862338,2.386234 0 0 0 -2.386003,2.3863 2.3862338,2.386234 0 0 0 0.608008,1.5869 l -1.451779,2.5501 a 2.3862337,2.3862339 0 0 0 -0.683742,-0.1009 2.3862337,2.3862339 0 0 0 -2.3860027,2.3862 2.3862337,2.3862339 0 0 0 0.7712497,1.7529 l -3.9100367,6.869 a 2.3862337,2.3862339 0 0 0 -0.658319,-0.094 2.3862337,2.3862339 0 0 0 -2.386271,2.3862 2.3862337,2.3862339 0 0 0 2.386271,2.3863 2.3862337,2.3862339 0 0 0 2.386271,-2.3863 2.3862337,2.3862339 0 0 0 -0.212214,-0.9765 l 7.9525407,-6.1732 7.975823,6.1754 a 2.3862334,2.3862335 0 0 0 -0.21034,0.9743 2.3862334,2.3862335 0 0 0 2.38627,2.3863 2.3862334,2.3862335 0 0 0 2.38627,-2.3863 2.3862334,2.3862335 0 0 0 -2.38627,-2.3862 2.3862334,2.3862335 0 0 0 -0.65885,0.094 l -3.92128,-6.8888 a 2.386233,2.3862332 0 0 0 0.74716,-1.7323 2.386233,2.3862332 0 0 0 -2.38627,-2.3862 2.386233,2.3862332 0 0 0 -0.65296,0.092 l -1.47881,-2.598 a 2.3862338,2.386234 0 0 0 0.55555,-1.5299 2.3862338,2.386234 0 0 0 -2.386266,-2.3863 z m 0.919236,4.586 1.41298,2.4821 a 2.386233,2.3862332 0 0 0 -0.756,1.7405 2.386233,2.3862332 0 0 0 0.21222,0.9768 l -1.759266,1.3656 -1.766756,-1.368 a 2.3862337,2.3862339 0 0 0 0.210341,-0.9744 2.3862337,2.3862339 0 0 0 -0.733249,-1.7172 l 1.410835,-2.4783 a 2.3862338,2.386234 0 0 0 0.849659,0.1595 2.3862338,2.386234 0 0 0 0.919236,-0.1866 z m -3.343239,6.0865 1.536612,1.1898 -7.3255327,5.6864 3.6667797,-6.4418 a 2.3862337,2.3862339 0 0 0 0.632628,0.088 2.3862337,2.3862339 0 0 0 1.489513,-0.5224 z m 4.900989,5e-4 a 2.386233,2.3862332 0 0 0 1.4855,0.5218 2.386233,2.3862332 0 0 0 0.66448,-0.095 l 3.67614,6.458 -7.35657,-5.6961 1.53045,-1.1882 z"
       id="path5443"
       inkscape:connector-curvature="0" />
  </g>
</svg>
