<?xml version="1.0" encoding="UTF-8" standalone="no"?>
<!-- Created with Inkscape (http://www.inkscape.org/) -->

<svg
   xmlns:dc="http://purl.org/dc/elements/1.1/"
   xmlns:cc="http://creativecommons.org/ns#"
   xmlns:rdf="http://www.w3.org/1999/02/22-rdf-syntax-ns#"
   xmlns:svg="http://www.w3.org/2000/svg"
   xmlns="http://www.w3.org/2000/svg"
   xmlns:sodipodi="http://sodipodi.sourceforge.net/DTD/sodipodi-0.dtd"
   xmlns:inkscape="http://www.inkscape.org/namespaces/inkscape"
   width="200"
   height="200"
   viewBox="0 0 199.99999 199.99999"
   id="svg2"
   version="1.1"
   inkscape:version="0.91 r13725"
   sodipodi:docname="logo.svg">
  <defs
     id="defs4">
    <filter
       style="color-interpolation-filters:sRGB"
       inkscape:label="Drop Shadow"
       id="filter11832">
      <feFlood
         flood-opacity="0.188235"
         flood-color="rgb(0,0,0)"
         result="flood"
         id="feFlood11834" />
      <feComposite
         in="flood"
         in2="SourceGraphic"
         operator="in"
         result="composite1"
         id="feComposite11836" />
      <feGaussianBlur
         in="composite1"
         stdDeviation="0.8"
         result="blur"
         id="feGaussianBlur11838" />
      <feOffset
         dx="1"
         dy="1"
         result="offset"
         id="feOffset11840" />
      <feComposite
         in="SourceGraphic"
         in2="offset"
         operator="over"
         result="composite2"
         id="feComposite11842" />
    </filter>
    <filter
       style="color-interpolation-filters:sRGB"
       inkscape:label="Drop Shadow"
       id="filter11832-1">
      <feFlood
         flood-opacity="0.188235"
         flood-color="rgb(0,0,0)"
         result="flood"
         id="feFlood11834-5" />
      <feComposite
         in="flood"
         in2="SourceGraphic"
         operator="in"
         result="composite1"
         id="feComposite11836-5" />
      <feGaussianBlur
         in="composite1"
         stdDeviation="0.8"
         result="blur"
         id="feGaussianBlur11838-4" />
      <feOffset
         dx="1"
         dy="1"
         result="offset"
         id="feOffset11840-0" />
      <feComposite
         in="SourceGraphic"
         in2="offset"
         operator="over"
         result="composite2"
         id="feComposite11842-9" />
    </filter>
  </defs>
  <sodipodi:namedview
     id="base"
     pagecolor="#ffff00"
     bordercolor="#666666"
     borderopacity="1.0"
     inkscape:pageopacity="0"
     inkscape:pageshadow="2"
     inkscape:zoom="0.98994949"
     inkscape:cx="153.84142"
     inkscape:cy="192.23537"
     inkscape:document-units="px"
     inkscape:current-layer="layer1"
     showgrid="false"
     inkscape:snap-bbox="true"
     inkscape:snap-bbox-midpoints="true"
     inkscape:snap-bbox-edge-midpoints="true"
     inkscape:bbox-nodes="true"
     inkscape:bbox-paths="true"
     showguides="false"
     inkscape:guide-bbox="true"
     units="px"
     inkscape:snap-global="true"
     inkscape:snap-to-guides="true"
     inkscape:snap-grids="false"
     inkscape:object-paths="true"
     inkscape:snap-nodes="true"
     inkscape:window-width="1846"
     inkscape:window-height="1178"
     inkscape:window-x="66"
     inkscape:window-y="-8"
     inkscape:window-maximized="1">
    <sodipodi:guide
       position="-4474.2857,1519.6929"
       orientation="1,0"
       id="guide4786" />
    <sodipodi:guide
       position="-4474.2857,1114.2857"
       orientation="0,1"
       id="guide4788" />
    <sodipodi:guide
       position="-5674.2857,-542.85717"
       orientation="1,0"
       id="guide4792" />
    <sodipodi:guide
       position="-5674.2857,-542.85717"
       orientation="0,1"
       id="guide4794" />
    <sodipodi:guide
       position="379.99999,1802.8571"
       orientation="1,0"
       id="guide5398" />
    <sodipodi:guide
       position="99.999995,1828.5714"
       orientation="1,0"
       id="guide5400"
       inkscape:label=""
       inkscape:color="rgb(0,0,255)" />
    <sodipodi:guide
       position="-22.728431,164.99999"
       orientation="0,1"
       id="guide5435"
       inkscape:label=""
       inkscape:color="rgb(0,0,255)" />
    <sodipodi:guide
       position="-46.972091,34.999998"
       orientation="0,1"
       id="guide5437"
       inkscape:label=""
       inkscape:color="rgb(0,0,255)" />
    <sodipodi:guide
       position="145.46196,114.65231"
       orientation="0,1"
       id="guide5439" />
    <sodipodi:guide
       position="25.999999,106.42857"
       orientation="1,0"
       id="guide5464"
       inkscape:label=""
       inkscape:color="rgb(0,0,255)" />
    <sodipodi:guide
       position="173.99999,253.21427"
       orientation="1,0"
       id="guide5466"
       inkscape:label=""
       inkscape:color="rgb(0,0,255)" />
    <sodipodi:guide
       position="71.127716,114.27839"
       orientation="1,0"
       id="guide5525" />
    <sodipodi:guide
       position="128.6089,114.74111"
       orientation="1,0"
       id="guide5527" />
  </sodipodi:namedview>
  <metadata
     id="metadata7">
    <rdf:RDF>
      <cc:Work
         rdf:about="">
        <dc:format>image/svg+xml</dc:format>
        <dc:type
           rdf:resource="http://purl.org/dc/dcmitype/StillImage" />
        <dc:title></dc:title>
      </cc:Work>
    </rdf:RDF>
  </metadata>
  <g
     inkscape:label="Layer 1"
     inkscape:groupmode="layer"
     id="layer1"
     transform="translate(0,-852.36229)">
    <path
       style="fill:#ffffff;fill-opacity:1;stroke:none;stroke-width:20.63436317;stroke-linecap:butt;stroke-linejoin:miter;stroke-miterlimit:4;stroke-dasharray:none;stroke-opacity:1"
       d="M 99.689453 21.058594 A 17.415747 17.415747 0 0 0 82.275391 38.474609 A 17.415747 17.415747 0 0 0 86.712891 50.056641 L 76.117188 68.667969 A 17.415745 17.415745 0 0 0 71.126953 67.931641 A 17.415745 17.415745 0 0 0 53.712891 85.347656 A 17.415745 17.415745 0 0 0 59.341797 98.140625 L 30.804688 148.27344 A 17.415745 17.415745 0 0 0 26 147.58398 A 17.415745 17.415745 0 0 0 8.5839844 165 A 17.415745 17.415745 0 0 0 26 182.41602 A 17.415745 17.415745 0 0 0 43.416016 165 A 17.415745 17.415745 0 0 0 41.867188 157.87305 L 99.908203 112.81836 L 158.11914 157.88867 A 17.415743 17.415743 0 0 0 156.58398 165 A 17.415743 17.415743 0 0 0 174 182.41602 A 17.415743 17.415743 0 0 0 191.41602 165 A 17.415743 17.415743 0 0 0 174 147.58398 A 17.415743 17.415743 0 0 0 169.19141 148.26758 L 140.57227 97.990234 A 17.415741 17.415741 0 0 0 146.02539 85.347656 A 17.415741 17.415741 0 0 0 128.60938 67.931641 A 17.415741 17.415741 0 0 0 123.84375 68.601562 L 113.05078 49.640625 A 17.415747 17.415747 0 0 0 117.10547 38.474609 A 17.415747 17.415747 0 0 0 99.689453 21.058594 z M 106.39844 54.529297 L 116.71094 72.644531 A 17.415741 17.415741 0 0 0 111.19336 85.347656 A 17.415741 17.415741 0 0 0 112.74219 92.476562 L 99.902344 102.44336 L 87.007812 92.458984 A 17.415745 17.415745 0 0 0 88.542969 85.347656 A 17.415745 17.415745 0 0 0 83.191406 72.814453 L 93.488281 54.726562 A 17.415747 17.415747 0 0 0 99.689453 55.890625 A 17.415747 17.415747 0 0 0 106.39844 54.529297 z M 81.998047 98.951172 L 93.212891 107.63477 L 39.748047 149.13672 L 66.509766 102.12109 A 17.415745 17.415745 0 0 0 71.126953 102.76367 A 17.415745 17.415745 0 0 0 81.998047 98.951172 z M 117.76758 98.955078 A 17.415741 17.415741 0 0 0 128.60938 102.76367 A 17.415741 17.415741 0 0 0 133.45898 102.06641 L 160.28906 149.19922 L 106.59766 107.62695 L 117.76758 98.955078 z "
       transform="translate(0,852.36229)"
       id="path5443" />
  </g>
</svg>
